HIERARCHY
ROOT Hips
{
  OFFSET 5.84602e-005 68.8428 3.50346
  CHANNELS 6 Xposition Yposition Zposition Zrotation Xrotation Yrotation
  JOINT Spine
  {
    OFFSET 0 8.597 -4.6522
    CHANNELS 3 Zrotation Xrotation Yrotation
    JOINT Spine1
    {
      OFFSET 0 7.8454 0.4098
      CHANNELS 3 Zrotation Xrotation Yrotation
      JOINT Spine2
      {
        OFFSET 0 9.7078 -2.1609
        CHANNELS 3 Zrotation Xrotation Yrotation
        JOINT Neck
        {
          OFFSET 0 21.8761 -0.4549
          CHANNELS 3 Zrotation Xrotation Yrotation
          JOINT Head
          {
            OFFSET 0 12.3537 3.3602
            CHANNELS 3 Zrotation Xrotation Yrotation
            End Site
            {
              OFFSET 0.0001 18.9506 0.5657
            }
          }
        }
        JOINT LeftShoulder
        {
          OFFSET 2.2086 21.1115 7.2329
          CHANNELS 3 Zrotation Xrotation Yrotation
          JOINT LeftArm
          {
            OFFSET 13.1193 3.0282 -4.8998
            CHANNELS 3 Zrotation Xrotation Yrotation
            JOINT LeftForeArm
            {
              OFFSET 27.4081 -0.0973053 -0.2375
              CHANNELS 3 Zrotation Xrotation Yrotation
              JOINT LeftHand
              {
                OFFSET 22.8641 0.0662994 -0.1369
                CHANNELS 3 Zrotation Xrotation Yrotation
                JOINT LeftHandIndex1
                {
                  OFFSET 8.8614 0.775009 2.4612
                  CHANNELS 3 Zrotation Xrotation Yrotation
                  JOINT LeftHandIndex2
                  {
                    OFFSET 3.3146 -0.808304 0.5841
                    CHANNELS 3 Zrotation Xrotation Yrotation
                    JOINT LeftHandIndex3
                    {
                      OFFSET 2.2628 -0.552002 0.3989
                      CHANNELS 3 Zrotation Xrotation Yrotation
                      End Site
                      {
                        OFFSET 1.6102 -0.4807 0.2612
                      }
                    }
                  }
                }
                JOINT LeftHandMiddle1
                {
                  OFFSET 8.9937 0.895004 0.2143
                  CHANNELS 3 Zrotation Xrotation Yrotation
                  JOINT LeftHandMiddle2
                  {
                    OFFSET 4.0984 0.0113983 -0.0242
                    CHANNELS 3 Zrotation Xrotation Yrotation
                    JOINT LeftHandMiddle3
                    {
                      OFFSET 2.2716 0.00689697 -0.0138001
                      CHANNELS 3 Zrotation Xrotation Yrotation
                      End Site
                      {
                        OFFSET 2.0404 -0.1441 0.0027
                      }
                    }
                  }
                }
                JOINT LeftHandRing1
                {
                  OFFSET 8.5234 0.597198 -2.0164
                  CHANNELS 3 Zrotation Xrotation Yrotation
                  JOINT LeftHandRing2
                  {
                    OFFSET 3.7188 -0.188293 -0.2328
                    CHANNELS 3 Zrotation Xrotation Yrotation
                    JOINT LeftHandRing3
                    {
                      OFFSET 2.1191 -0.106598 -0.1332
                      CHANNELS 3 Zrotation Xrotation Yrotation
                      End Site
                      {
                        OFFSET 1.8737 -0.2304 -0.0886
                      }
                    }
                  }
                }
                JOINT LeftHandPinky1
                {
                  OFFSET 7.9094 -0.601089 -3.4825
                  CHANNELS 3 Zrotation Xrotation Yrotation
                  JOINT LeftHandPinky2
                  {
                    OFFSET 2.2874 -0.477005 -0.6314
                    CHANNELS 3 Zrotation Xrotation Yrotation
                    JOINT LeftHandPinky3
                    {
                      OFFSET 1.6774 -0.349396 -0.4633
                      CHANNELS 3 Zrotation Xrotation Yrotation
                      End Site
                      {
                        OFFSET 1.4888 -0.4091 -0.3416
                      }
                    }
                  }
                }
                JOINT LeftHandThumb1
                {
                  OFFSET 1.833 -1.3875 1.3896
                  CHANNELS 3 Zrotation Xrotation Yrotation
                  JOINT LeftHandThumb2
                  {
                    OFFSET 3.4129 -1.121 2.5732
                    CHANNELS 3 Zrotation Xrotation Yrotation
                    JOINT LeftHandThumb3
                    {
                      OFFSET 2.2474 -0.804199 1.6192
                      CHANNELS 3 Zrotation Xrotation Yrotation
                      End Site
                      {
                        OFFSET 1.6527 -0.5689 1.1317
                      }
                    }
                  }
                }
              }
            }
          }
        }
        JOINT RightShoulder
        {
          OFFSET -2.2086 21.1115 7.2329
          CHANNELS 3 Zrotation Xrotation Yrotation
          JOINT RightArm
          {
            OFFSET -13.1216 3.0287 -4.9007
            CHANNELS 3 Zrotation Xrotation Yrotation
            JOINT RightForeArm
            {
              OFFSET -27.4081 -0.0973053 -0.2375
              CHANNELS 3 Zrotation Xrotation Yrotation
              JOINT RightHand
              {
                OFFSET -22.8641 0.0664063 -0.1369
                CHANNELS 3 Zrotation Xrotation Yrotation
                JOINT RightHandIndex1
                {
                  OFFSET -8.8614 0.774994 2.4612
                  CHANNELS 3 Zrotation Xrotation Yrotation
                  JOINT RightHandIndex2
                  {
                    OFFSET -3.3146 -0.808304 0.5841
                    CHANNELS 3 Zrotation Xrotation Yrotation
                    JOINT RightHandIndex3
                    {
                      OFFSET -2.2628 -0.552002 0.3989
                      CHANNELS 3 Zrotation Xrotation Yrotation
                      End Site
                      {
                        OFFSET -1.6102 -0.4807 0.2612
                      }
                    }
                  }
                }
                JOINT RightHandMiddle1
                {
                  OFFSET -8.9937 0.894989 0.2143
                  CHANNELS 3 Zrotation Xrotation Yrotation
                  JOINT RightHandMiddle2
                  {
                    OFFSET -4.0984 0.0113983 -0.0242
                    CHANNELS 3 Zrotation Xrotation Yrotation
                    JOINT RightHandMiddle3
                    {
                      OFFSET -2.2716 0.00691223 -0.0138001
                      CHANNELS 3 Zrotation Xrotation Yrotation
                      End Site
                      {
                        OFFSET -2.0404 -0.1441 0.0027
                      }
                    }
                  }
                }
                JOINT RightHandRing1
                {
                  OFFSET -8.5234 0.597198 -2.0164
                  CHANNELS 3 Zrotation Xrotation Yrotation
                  JOINT RightHandRing2
                  {
                    OFFSET -3.7188 -0.188309 -0.2328
                    CHANNELS 3 Zrotation Xrotation Yrotation
                    JOINT RightHandRing3
                    {
                      OFFSET -2.1191 -0.106598 -0.1332
                      CHANNELS 3 Zrotation Xrotation Yrotation
                      End Site
                      {
                        OFFSET -1.8737 -0.2304 -0.0886
                      }
                    }
                  }
                }
                JOINT RightHandPinky1
                {
                  OFFSET -7.9094 -0.601105 -3.4825
                  CHANNELS 3 Zrotation Xrotation Yrotation
                  JOINT RightHandPinky2
                  {
                    OFFSET -2.2874 -0.477005 -0.6314
                    CHANNELS 3 Zrotation Xrotation Yrotation
                    JOINT RightHandPinky3
                    {
                      OFFSET -1.6774 -0.349396 -0.4633
                      CHANNELS 3 Zrotation Xrotation Yrotation
                      End Site
                      {
                        OFFSET -1.4888 -0.4091 -0.3416
                      }
                    }
                  }
                }
                JOINT RightHandThumb1
                {
                  OFFSET -1.833 -1.38751 1.3896
                  CHANNELS 3 Zrotation Xrotation Yrotation
                  JOINT RightHandThumb2
                  {
                    OFFSET -3.41299 -1.12099 2.5732
                    CHANNELS 3 Zrotation Xrotation Yrotation
                    JOINT RightHandThumb3
                    {
                      OFFSET -2.24741 -0.804108 1.6192
                      CHANNELS 3 Zrotation Xrotation Yrotation
                      End Site
                      {
                        OFFSET -1.6527 -0.5689 1.1317
                      }
                    }
                  }
                }
              }
            }
          }
        }
      }
    }
  }
  JOINT RightUpLeg
  {
    OFFSET -9.1966 3.8861 -0.7581
    CHANNELS 3 Zrotation Xrotation Yrotation
    JOINT RightLeg
    {
      OFFSET -0.7359 -41.0265 0
      CHANNELS 3 Zrotation Xrotation Yrotation
      JOINT RightFoot
      {
        OFFSET 0 -40.2855 0
        CHANNELS 3 Zrotation Xrotation Yrotation
        JOINT RightToeBase
        {
          OFFSET 0 -5.6122 11.7359
          CHANNELS 3 Zrotation Xrotation Yrotation
          End Site
          {
            OFFSET 0 0 7.8731
          }
        }
      }
    }
  }
  JOINT LeftUpLeg
  {
    OFFSET 9.1965 3.8864 -0.7581
    CHANNELS 3 Zrotation Xrotation Yrotation
    JOINT LeftLeg
    {
      OFFSET 0.7359 -41.0268 0
      CHANNELS 3 Zrotation Xrotation Yrotation
      JOINT LeftFoot
      {
        OFFSET 0 -40.2855 0
        CHANNELS 3 Zrotation Xrotation Yrotation
        JOINT LeftToeBase
        {
          OFFSET 0 -5.6122 11.7359
          CHANNELS 3 Zrotation Xrotation Yrotation
          End Site
          {
            OFFSET 0 0 7.8731
          }
        }
      }
    }
  }
}
MOTION
Frames:	4
Frame Time:	0.0333333
5.84602e-005 68.8428 3.50346 0 0 -0 0 0 -0 0 0 -0 0 0 -0 0 0 -0 0 0 -0 0 0 -0 0 0 -0 0 0 -0 0 0 -0 0 0 -0 0 0 -0 0 0 -0 0 0 -0 -0.0146107 -8.87603e-005 -2.63497e-007 2.99804e-018 -2.42657e-020 -1.42182e-022 0 0 -0 -0.0187562 -0.001176 5.858e-005 5.06224e-018 3.88251e-019 1.21329e-020 0 0 -0 -0.012269 -0.00324817 0.000675346 -1.74678e-018 3.88251e-019 -0 0 0 -0 0 0 -0 0 0 -0 0 0 -0 0 0 -0 0 0 -0 0 0 -0 0 0 -0 0 0 -0 0 0 -0 0 0 -0 0.0149955 -9.10982e-005 2.64101e-007 -9.69331e-018 1.21329e-020 -4.7394e-023 0 0 -0 0.0189956 -0.00119102 -5.96516e-005 -5.41541e-019 0 2.42657e-020 0 0 -0 0.0122698 -0.00324857 -0.000673756 -2.00796e-019 0 -1.94126e-019 0 0 -0 0 0 -0 0 0 -0 3.39842 1.33031 -0.0637918 -5.65207e-008 0.834868 -0.000436188 -3.39935 -2.16518 -0.0642563 -8.89002e-024 -1.18485e-023 -1.48106e-024 -3.39844 1.35642 0.0640283 -3.18788e-007 0.782166 -0.000588827 3.39931 -2.13858 0.0634662 1.1399e-023 0 -0 
2.6044 24.4561 28.4097 -5.52494e-015 12.0025 180 -0.161854 9.08969 -0.148373 -0.3054 18.1798 -0.275666 -0.3054 18.1798 -0.275666 -2.03893e-006 -15.0016 1.41398e-007 -3.49331e-008 -2.42892 2.98396e-009 -18.316 -15.6413 46.7727 -54.2054 -1.83669 -101.699 -10.3774 18.9667 -89.6602 51.7804 -56.6906 59.2891 1.59028e-015 -1.98785e-015 -0 1.59028e-015 -1.59028e-015 3.18055e-015 4.41391e-032 1.59028e-015 -1.59028e-015 1.59028e-015 -1.98785e-015 -0 -0.01461 -9.01233e-005 -6.97427e-007 -1.59028e-015 -1.59028e-015 -0 1.59028e-015 -1.98785e-015 -0 -0.0187548 -0.00117286 5.27603e-005 -3.18055e-015 -5.56597e-015 1.59028e-015 1.59028e-015 -1.98785e-015 -0 -0.012298 -0.00325102 0.000679514 -3.18055e-015 -8.34896e-015 6.36111e-015 1.59028e-015 -1.98785e-015 -0 1.59028e-015 -1.59028e-015 3.18055e-015 4.41391e-032 1.59028e-015 -1.59028e-015 22.4842 -17.6531 -60.3036 51.0516 1.74709 104.337 9.3397 23.3983 101.153 -63.4344 -57.492 -67.5951 -1.59028e-015 -1.98785e-015 -3.18055e-015 -3.18055e-015 0 1.59028e-015 -4.77083e-015 -3.97569e-016 3.18055e-015 -1.59028e-015 -1.98785e-015 -3.18055e-015 0.0149821 -9.7835e-005 -1.69756e-006 1.59028e-015 1.59028e-015 4.77083e-015 -1.59028e-015 -1.98785e-015 -3.18055e-015 0.0189998 -0.00119349 -6.18283e-005 -4.77083e-015 -3.57812e-015 3.18055e-015 -1.59028e-015 -1.98785e-015 -3.18055e-015 0.0123023 -0.0032562 -0.000678354 5.49847e-007 2.30628e-008 -4.76393e-008 -1.59028e-015 -1.98785e-015 -3.18055e-015 -3.18055e-015 0 1.59028e-015 -4.77083e-015 -3.97569e-016 3.18055e-015 -8.96968 -5.208 -17.5397 -160.937 59.6838 159.935 16.4409 35.5184 -16.8265 2.82924e-006 2.74852e-006 -3.01767e-006 7.95417 -6.40238 17.4658 160.628 60.695 -159.741 -18.0278 37.1612 18.8819 1.42093e-006 1.51323e-007 -9.76735e-007 
2.6044 24.4559 28.4099 -5.52526e-015 12 180 -0.162539 8.86224 -0.146855 -0.30739 17.7249 -0.272899 -0.30739 17.7249 -0.272899 -3.83499e-006 -13.9268 3.22197e-007 -1.71516e-007 -4.83353 -3.32599e-008 -18.7099 -14.6753 46.9781 -54.2054 -1.8367 -101.699 -10.3774 18.9667 -89.6602 51.3457 -56.4203 59.1774 -1.76556e-031 3.18055e-015 3.18055e-015 1.54487e-031 -2.78299e-015 3.18055e-015 -0 0 6.36111e-015 -1.76556e-031 3.18055e-015 3.18055e-015 -0.0145715 -9.02642e-005 -1.19684e-006 -5.51738e-032 1.98785e-015 1.59028e-015 -1.76556e-031 3.18055e-015 3.18055e-015 -0.0187543 -0.00117593 5.77062e-005 3.18055e-015 1.98785e-015 1.59028e-015 -1.76556e-031 3.18055e-015 3.18055e-015 -0.0122699 -0.00325125 0.000672121 -4.77083e-015 3.18055e-015 1.59028e-015 -1.76556e-031 3.18055e-015 3.18055e-015 1.54487e-031 -2.78299e-015 3.18055e-015 -0 0 6.36111e-015 22.7852 -16.7578 -60.7162 51.0516 1.74709 104.337 9.33971 23.3983 101.153 -62.9561 -57.366 -67.4345 -1.842e-006 1.99104e-006 -1.80437e-006 -1.842e-006 1.99104e-006 -1.80437e-006 -3.684e-006 3.98208e-006 -3.60874e-006 -1.842e-006 1.99104e-006 -1.80437e-006 0.0150065 -8.75911e-005 -1.92258e-007 -3.68427e-006 3.98161e-006 -3.60926e-006 -1.842e-006 1.99104e-006 -1.80437e-006 0.0189897 -0.00118861 -6.12572e-005 -3.68438e-006 3.9815e-006 -3.60936e-006 -1.842e-006 1.99104e-006 -1.80437e-006 0.0122592 -0.00324143 -0.000674077 -3.68434e-006 3.98173e-006 -3.60905e-006 -1.842e-006 1.99104e-006 -1.80437e-006 -1.842e-006 1.99104e-006 -1.80437e-006 -3.684e-006 3.98208e-006 -3.60874e-006 -8.96967 -5.20796 -17.5397 -160.937 59.6838 159.935 16.4409 35.5184 -16.8265 1.4209e-006 -1.50883e-007 -9.76854e-007 7.95416 -6.40239 17.4658 160.628 60.695 -159.741 -18.0278 37.1612 18.8819 -1.42095e-006 -1.51316e-007 9.76703e-007 
2.6044 24.4559 28.4099 -5.52526e-015 12 180 -0.163146 8.63317 -0.145301 -0.309215 17.2667 -0.27009 -0.309216 17.2667 -0.27009 -2.34376e-006 -12.851 7.25161e-007 -7.57506e-008 -7.25005 -9.77995e-008 -19.1061 -13.7098 47.1897 -54.2054 -1.83668 -101.699 -10.3774 18.9667 -89.6602 50.9148 -56.1495 59.0701 3.18055e-015 1.59028e-015 1.59028e-015 1.59028e-015 -3.18055e-015 -0 1.59028e-015 3.18055e-015 -4.77083e-015 3.18055e-015 1.59028e-015 1.59028e-015 -0.0146071 -8.36725e-005 1.88814e-006 -1.59028e-015 -9.14409e-015 -0 3.18055e-015 1.59028e-015 1.59028e-015 -0.0187578 -0.00117614 6.14031e-005 1.59028e-015 -9.93923e-015 -1.59028e-015 3.18055e-015 1.59028e-015 1.59028e-015 -0.0122643 -0.00324437 0.000674543 1.59028e-015 8.34896e-015 -3.18055e-015 3.18055e-015 1.59028e-015 1.59028e-015 1.59028e-015 -3.18055e-015 -0 1.59028e-015 3.18055e-015 -4.77083e-015 23.0918 -15.8638 -61.1322 51.0516 1.74709 104.337 9.3397 23.3983 101.153 -62.48 -57.2393 -67.2762 1.59028e-015 -3.18055e-015 3.18055e-015 -1.59028e-015 -6.36111e-015 4.77083e-015 -3.18055e-015 -3.18055e-015 1.59028e-015 1.59028e-015 -3.18055e-015 3.18055e-015 0.0149943 -9.3671e-005 7.40132e-006 4.77083e-015 1.59028e-015 1.11319e-014 1.59028e-015 -3.18055e-015 3.18055e-015 0.0190255 -0.00119488 -5.6622e-005 -3.18055e-015 -5.56597e-015 3.18055e-015 1.59028e-015 -3.18055e-015 3.18055e-015 0.0122741 -0.00325019 -0.000677117 -1.59028e-015 4.37326e-015 -1.59028e-015 1.59028e-015 -3.18055e-015 3.18055e-015 -1.59028e-015 -6.36111e-015 4.77083e-015 -3.18055e-015 -3.18055e-015 1.59028e-015 -8.96968 -5.20798 -17.5397 -160.937 59.6838 159.935 16.4409 35.5184 -16.8265 4.38797e-007 2.52042e-007 1.17538e-006 7.95417 -6.4024 17.4658 160.628 60.695 -159.741 -18.0278 37.1612 18.8819 -4.26989e-007 3.30245e-006 -1.11203e-007 
